# AST/ASF file generated using VICON BodyLanguage
# -----------------------------------------------
:version 1.10
:name VICON
:units
  mass 1.0
  length 0.45
  angle deg
:documentation
   .ast/.asf automatically generated from VICON data using
   VICON BodyBuilder and BodyLanguage model FoxedUp or BRILLIANT.MOD
:root
   order TX TY TZ RX RY RZ
   axis XYZ
   position 0 0 0  
   orientation 0 0 0 
:bonedata
  begin
     id 1 
     name lhipjoint
     direction 0.577973 -0.728611 0.367523 
     length 2.48544 
     axis 0 0 0  XYZ
  end
  begin
     id 2 
     name lfemur
     direction 0.34202 -0.939693 0  
     length 7.1921  
     axis 0 0 20  XYZ
    dof rx ry rz
    limits (-160.0 20.0)
           (-70.0 70.0)
           (-60.0 70.0)
  end
  begin
     id 3 
     name ltibia
     direction 0.34202 -0.939693 0   
     length 7.71059   
     axis 0 0 20   XYZ
    dof rx
    limits (-10.0 170.0)
  end
  begin
     id 4 
     name lfoot
     direction 0.089538 -0.246004 0.965124   
     length 2.19909   
     axis -90 7.62852e-016 20   XYZ
    dof rx rz
    limits (-45.0 90.0)
           (-70.0 20.0)
  end
  begin
     id 5 
     name ltoes
     direction 1.53544e-011 -4.21829e-011 1   
     length 1.10116   
     axis -90 7.62852e-016 20   XYZ
    dof rx
    limits (-90.0 20.0)
  end
  begin
     id 6 
     name rhipjoint
     direction -0.554414 -0.743062 0.374812   
     length 2.4371  
     axis 0 0 0  XYZ 
  end
  begin
     id 7 
     name rfemur
     direction -0.34202 -0.939693 0   
     length 7.47254   
     axis 0 0 -20   XYZ
    dof rx ry rz
    limits (-160.0 20.0)
           (-70.0 70.0)
           (-70.0 60.0)
  end
  begin
     id 8 
     name rtibia
     direction -0.34202 -0.939693 0   
     length 7.65855   
     axis 0 0 -20   XYZ
    dof rx
    limits (-10.0 170.0)
 end
 begin
     id 9 
     name rfoot
     direction -0.133779 -0.367555 0.92033   
     length 2.43006  
     axis -90 -7.62852e-016 -20   XYZ
    dof rx rz
    limits (-45.0 90.0)
           (-20.0 70.0)
  end
  begin
     id 10 
     name rtoes
     direction -1.53563e-011 -4.21889e-011 1   
     length 1.19625   
     axis -90 -7.62852e-016 -20   XYZ
    dof rx
    limits (-90.0 20.0)
  end
  begin
     id 11 
     name lowerback
     direction 0.0249066 0.998043 -0.0573585   
     length 2.08485   
     axis 0 0 0   XYZ
    dof rx ry rz
    limits (-20.0 45.0)
           (-30.0 30.0)
           (-30.0 30.0)
  end
  begin
     id 12 
     name upperback
     direction 0.0237884 0.999673 0.00943178   
     length 2.08515   
     axis 0 0 0   XYZ
    dof rx ry rz
    limits (-20.0 45.0)
           (-30.0 30.0)
           (-30.0 30.0)
  end
  begin
     id 13 
     name thorax
     direction 0.0106671 0.999301 0.0358174   
     length 2.09037   
     axis 0 0 0   XYZ
    dof rx ry rz
    limits (-20.0 45.0)
           (-30.0 30.0)
           (-30.0 30.0)
  end
  begin
     id 14 
     name lowerneck
     direction -0.0580016 0.987052 0.149546   
     length 1.84454   
     axis 0 0 0   XYZ
    dof rx ry rz
    limits (-20.0 45.0)
           (-30.0 30.0)
           (-30.0 30.0)
  end
  begin
     id 15 
     name upperneck
     direction 0.079456 0.981963 -0.171567   
     length 1.88141   
     axis 0 0 0   XYZ
    dof rx ry rz
    limits (-20.0 45.0)
           (-30.0 30.0)
           (-30.0 30.0)
  end
  begin
     id 16
     name head
     direction 0.0262167 0.9967 -0.0768276  
     length 1.89541  
     axis 0 0 0   XYZ
    dof rx ry rz
    limits (-20.0 45.0)
           (-30.0 30.0)
           (-30.0 30.0)
  end
  begin
     id 17 
     name lclavicle
     direction 0.946135 0.322134 -0.0325326  
     length 3.949  
     axis 0 0 0   XYZ
    dof ry rz
    limits (-20.0 10.0)
           (0.0 20.0)
  end
  begin
     id 18 
     name lhumerus
     direction 1 -4.48964e-011 1.94005e-028   
     length 5.10995   
     axis 180 -30 -90   XYZ
    dof rx ry rz
    limits (-60.0 90.0)
           (-90.0 90.0)
           (-90.0 90.0)
  end
  begin
     id 19
     name lradius
     direction 1 -4.48976e-011 2.87852e-027   
     length 3.21207   
     axis 180 -30 -90   XYZ
    dof rx
    limits (-10.0 170.0)
  end
  begin
     id 20
     name lwrist
     direction 1 -4.48963e-011 1.9975e-027   
     length 1.60604   
     axis 2.96054e-016 90 90   XYZ
    dof ry
    limits (-180.0 0.0)
 end
  begin
     id 21 
     name lhand
     direction 1 -4.48919e-011 4.00227e-027   
     length 0.63349   
     axis -2.5488e-015 90 90   XYZ
    dof rx rz
    limits (-90.0 90.0)
           (-45.0 45.0)
  end
  begin
     id 22 
     name lfingers
     direction 1 -4.49037e-011 7.9652e-027   
     length 0.510736   
     axis -5.0975e-015 90 90   XYZ
    dof rx
    limits (0.0 90.0)
  end
  begin
     id 23
     name lthumb
     direction 0.707107 -6.34922e-011 0.707107   
     length 0.733318   
     axis -90 45 -4.48553e-014   XYZ
    dof rx rz
    limits (-45.0 45.0)
           (-45.0 45.0)
  end
  begin
     id 24 
     name rclavicle
     direction -0.940085 0.328911 -0.0897654   
     length 3.93848  
     axis 0 0 0   XYZ 
    dof ry rz
    limits (-10.0 20.0)
           (-20.0 0.0)
  end
  begin
     id 25 
     name rhumerus
     direction -1 -4.48958e-011 3.02044e-027  
     length 5.25109   
     axis 180 30 90   XYZ
    dof rx ry rz
    limits (-90.0 60.0)
           (-90.0 90.0)
           (-90.0 90.0)
  end
  begin
     id 26 
     name rradius
     direction -1 -4.4897e-011 9.78352e-028   
     length 3.28364   
     axis 180 30 90   XYZ
    dof rx
    limits (-10.0 170.0)
  end
  begin
     id 27 
     name rwrist
     direction -1 -4.48943e-011 1.99918e-027   
     length 1.64182   
     axis 2.96054e-016 -90 -90   XYZ
    dof ry
    limits (-180.0 0.0)
  end
  begin
     id 28
     name rhand
     direction -1 -4.49024e-011 3.98478e-027   
     length 0.599745   
     axis -2.5488e-015 -90 -90   XYZ
    dof rx rz
    limits (-90.0 90.0)
           (-45.0 45.0)
  end
  begin
     id 29
     name rfingers
     direction -1 -4.48914e-011 8.00621e-027   
     length 0.48353   
     axis -5.0975e-015 -90 -90   XYZ
    dof rx
    limits (0.0 90.0)
  end
  begin
     id 30
     name rthumb
     direction -0.707107 -6.34992e-011 0.707107   
     length 0.694255   
     axis -90 -45 4.48553e-014   XYZ
    dof rx rz
    limits (-45.0 45.0)
           (-45.0 45.0)
  end
:hierarchy
  begin
    root lhipjoint rhipjoint lowerback
    lhipjoint lfemur
    lfemur ltibia
    ltibia lfoot
    lfoot ltoes
    rhipjoint rfemur
    rfemur rtibia
    rtibia rfoot
    rfoot rtoes
    lowerback upperback
    upperback thorax
    thorax lowerneck lclavicle rclavicle
    lowerneck upperneck
    upperneck head
    lclavicle lhumerus
    lhumerus lradius
    lradius lwrist
    lwrist lhand lthumb
    lhand lfingers
    rclavicle rhumerus
    rhumerus rradius
    rradius rwrist
    rwrist rhand rthumb
    rhand rfingers
  end

#!OML:ASF E:\CV Data\Top Level 1\Subject 1\Session 1\player.ASF
:FULLY-SPECIFIED
:DEGREES
321
root 3.4463 16.5572 -24.7193 17.1306 7.8696 -5.5858
lowerback 25.6305 0.086409 13.1263
upperback 6.56278 4.22233 8.6872
thorax -6.60591 1.88632 0.929545
lowerneck -12.8565 -7.10259 -10.5353
upperneck -17.8735 -7.16229 13.0088
head -2.3327 -3.34722 5.6177
rclavicle -1.59028e-015 -4.29375e-014
rhumerus -35.1493 -25.9765 -65.2574
rradius 91.076
rwrist -52.0371
rhand -3.33457 -2.17828
rfingers 7.12502
rthumb 22.3928 -30.9004
lclavicle -1.59028e-015 -4.29375e-014
lhumerus -46.2277 -3.32554 78.4512
lradius 79.6414
lwrist 15.2691
lhand -25.7537 13.2279
lfingers 7.12502
lthumb 0.783583 43.2062
rfemur -27.5043 -14.092 31.9775
rtibia 50.2929
rfoot -33.543 -23.7941
rtoes -10.1533
lfemur -59.7915 13.075 -19.4474
ltibia 43.3813
lfoot -3.99045 4.23966
ltoes -0.677153
322
root 3.45195 16.5822 -24.5756 17.0706 8.59225 -5.5784
lowerback 25.1946 0.136921 13.031
upperback 6.33215 4.2097 8.54193
thorax -6.64465 1.87921 0.828136
lowerneck -12.7352 -7.24797 -10.5767
upperneck -18.135 -7.32136 13.2212
head -2.39581 -3.43159 5.69546
rclavicle 2.22639e-014 2.06736e-014
rhumerus -36.0339 -25.2035 -65.4329
rradius 91.5705
rwrist -52.3693
rhand -2.86658 -2.27269
rfingers 7.12502
rthumb 22.842 -30.94
lclavicle 2.22639e-014 2.06736e-014
lhumerus -46.5444 -4.49973 79.7648
lradius 81.5822
lwrist 15.5162
lhand -26.59 13.2348
lfingers 7.12502
lthumb -0.0240754 43.2145
rfemur -26.9286 -14.0125 31.964
rtibia 50.3373
rfoot -32.8481 -24.0611
rtoes -11.1225
lfemur -59.3497 12.6683 -19.2457
ltibia 43.6845
lfoot -4.36456 4.70784
ltoes -0.156311
323
root 3.46029 16.6121 -24.4315 16.9959 9.29948 -5.55726
lowerback 24.7977 0.182835 12.9535
upperback 6.10807 4.20091 8.38578
thorax -6.69135 1.8728 0.703871
lowerneck -12.6349 -7.41434 -10.6355
upperneck -18.3657 -7.5055 13.4475
head -2.44175 -3.52729 5.7776
rclavicle 1.59028e-015 1.59028e-014
rhumerus -36.789 -24.4109 -65.7134
rradius 92.082
rwrist -52.5303
rhand -2.56014 -2.84436
rfingers 7.12502
rthumb 23.1361 -31.4751
lclavicle 1.59028e-015 1.59028e-014
lhumerus -46.7062 -5.76545 81.2324
lradius 83.3852
lwrist 15.7346
lhand -27.3989 13.1541
lfingers 7.12502
lthumb -0.805394 43.1323
rfemur -26.5068 -13.8361 31.9004
rtibia 50.6934
rfoot -31.8866 -24.235
rtoes -12.2169
lfemur -58.8437 12.2563 -19.0529
ltibia 43.8601
lfoot -4.63442 5.19936
ltoes 0.276351
324
root 3.47157 16.6463 -24.2875 16.9132 9.98014 -5.53477
lowerback 24.4327 0.224969 12.8921
upperback 5.89392 4.19507 8.22654
thorax -6.73975 1.86707 0.566764
lowerneck -12.5629 -7.59581 -10.7246
upperneck -18.5673 -7.70442 13.6916
head -2.4701 -3.6282 5.86771
rclavicle -6.36111e-015 1.11319e-014
rhumerus -37.3932 -23.5509 -66.1164
rradius 92.5128
rwrist -52.4243
rhand -2.38314 -3.3178
rfingers 7.12502
rthumb 23.3059 -31.9271
lclavicle -6.36111e-015 1.11319e-014
lhumerus -46.6953 -7.09245 82.8491
lradius 85.0147
lwrist 15.9147
lhand -28.1401 13.0323
lfingers 7.12502
lthumb -1.52119 43.0066
rfemur -26.2819 -13.5744 31.7983
rtibia 51.4082
rfoot -30.652 -24.2776
rtoes -13.3801
lfemur -58.2822 11.8444 -18.8582
ltibia 43.9182
lfoot -4.82662 5.60566
ltoes 0.585481
325
root 3.48519 16.6834 -24.1446 16.8387 10.655 -5.50086
lowerback 24.0888 0.262201 12.8388
upperback 5.68906 4.18756 8.07055
thorax -6.7869 1.86023 0.429694
lowerneck -12.5156 -7.78546 -10.8309
upperneck -18.7648 -7.91046 13.9357
head -2.49136 -3.73096 5.95939
rclavicle 4.77083e-015 3.18055e-015
rhumerus -37.8283 -22.6195 -66.6489
rradius 92.8415
rwrist -52.0327
rhand -2.19308 -3.56912
rfingers 7.12502
rthumb 23.4882 -32.1552
lclavicle 4.77083e-015 3.18055e-015
lhumerus -46.4859 -8.4845 84.6048
lradius 86.4434
lwrist 16.0924
lhand -28.7843 12.9218
lfingers 7.12502
lthumb -2.14342 42.8908
rfemur -26.3064 -13.2671 31.6612
rtibia 52.5132
rfoot -29.1265 -24.1577
rtoes -14.5001
lfemur -57.688 11.4232 -18.684
ltibia 43.8715
lfoot -4.97819 5.80076
ltoes 0.739775
